# xmcd
#
# Track frame offsets:
#       150
#       15607
#       31582
#       51580
#       69127
#       80707
#       97835
#       107842
#       125695
#       143470
#       154195
#       169067
#       189140
#       205545
#
# Disc length: 2914 seconds
#
# Revision: 0
# Processed by: cddbd v1.4PL0 Copyright (c) Steve Scherf et al.
# Submitted via: CD-DA_X-Tractor v0.21
#
DISCID=a90b600e
DTITLE=Steira Dies'l - Aunstartn and drüberfahrn
DYEAR=1900
DGENRE=
TTITLE0=Jetzt geh i's aun
TTITLE1=Rund um die Wö't
TTITLE2=Liaba' Las Vegas
TTITLE3=Oida Rock and Roll
TTITLE4=A' aund'ra' Clown
TTITLE5=Du host imma' Recht
TTITLE6=A' gaunze Nocht
TTITLE7=Zu vü wull'n
TTITLE8=Die valurane Band
TTITLE9=Ärga' mi' net
TTITLE10=Wos i wü'
TTITLE11=Da' letzte Taunz
TTITLE12=Aus und vorbei
TTITLE13=Die meiste Zeit
EXTD=
EXTT0=
EXTT1=
EXTT2=
EXTT3=
EXTT4=
EXTT5=
EXTT6=
EXTT7=
EXTT8=
EXTT9=
EXTT10=
EXTT11=
EXTT12=
EXTT13=
PLAYORDER=
